<?xml version="1.0" standalone="no"?>
<!DOCTYPE svg PUBLIC "-//W3C//DTD SVG 20010904//EN"
 "http://www.w3.org/TR/2001/REC-SVG-20010904/DTD/svg10.dtd">
<svg version="1.0" xmlns="http://www.w3.org/2000/svg"
 width="2560.000000pt" height="2560.000000pt" viewBox="0 0 2560.000000 2560.000000"
 preserveAspectRatio="xMidYMid meet">
<metadata>
Created by potrace 1.14, written by Peter Selinger 2001-2017
</metadata>
<g transform="translate(0.000000,2560.000000) scale(0.100000,-0.100000)"
fill="#000000" stroke="none">
<path d="M0 12865 l0 -12735 12795 0 12795 0 0 12735 0 12735 -12795 0 -12795
0 0 -12735z m24110 5 l0 -11260 -11315 0 -11315 0 0 11253 c0 6190 3 11257 7
11260 3 4 5095 7 11315 7 l11308 0 0 -11260z"/>
<path d="M14765 23449 c-1299 -46 -2789 -254 -4270 -594 -1752 -403 -3312
-993 -4253 -1608 l-153 -100 6 -46 c28 -211 66 -365 146 -596 167 -486 455
-1001 829 -1487 107 -139 356 -394 442 -452 l58 -39 67 60 c472 417 1234 852
2263 1293 527 226 1215 480 1755 650 110 35 206 65 213 68 7 2 -30 -55 -83
-127 -427 -585 -895 -1358 -1425 -2356 -144 -272 -668 -1320 -839 -1680 -172
-360 -435 -925 -616 -1325 -448 -988 -539 -1190 -669 -1488 -519 -1185 -1479
-3511 -2023 -4902 -395 -1010 -819 -2159 -1123 -3042 l-92 -268 23 -37 c104
-174 303 -450 458 -638 543 -658 1263 -1207 2076 -1583 805 -373 1636 -576
2685 -658 269 -21 1057 -25 1320 -6 1315 94 2411 359 3660 884 1201 505 2261
1155 3165 1942 195 170 649 622 810 806 941 1080 1495 2191 1635 3281 83 649
33 1282 -146 1859 -286 920 -964 1816 -1862 2460 -119 85 -120 72 18 147 202
110 510 307 755 482 698 499 1313 1152 1728 1836 151 248 324 622 427 920 245
711 325 1622 209 2382 -136 896 -513 1640 -1141 2249 -1271 1233 -3310 1811
-6053 1713z m3090 -1908 c1016 -80 1773 -316 2310 -721 434 -328 702 -770 795
-1310 221 -1290 -478 -2471 -1995 -3372 -926 -550 -2052 -952 -3274 -1168
l-173 -30 -181 25 c-258 35 -344 44 -587 60 -249 17 -831 19 -1125 5 -530 -26
-1153 -98 -1552 -179 -101 -21 -183 -34 -183 -30 0 15 696 1505 1016 2177 711
1489 1651 3226 2036 3759 l59 83 -59 124 c-67 139 -113 212 -179 286 -25 28
-44 52 -42 54 7 6 399 75 634 111 562 87 1161 140 1658 148 209 3 673 -9 842
-22z m-76 -8252 c622 -338 1039 -813 1246 -1419 112 -327 161 -677 152 -1085
-6 -274 -24 -437 -72 -680 -134 -666 -438 -1288 -948 -1936 -324 -413 -747
-833 -1198 -1192 -949 -754 -2131 -1343 -3468 -1727 -804 -231 -1630 -369
-2511 -421 -331 -20 -1136 -17 -1360 4 -571 54 -955 148 -1317 323 -156 75
-146 50 -108 266 81 470 350 1311 825 2578 566 1510 1180 2990 2106 5072 l79
177 150 -148 c228 -224 425 -373 659 -496 92 -49 121 -59 223 -78 113 -21 144
-22 783 -22 409 0 746 5 875 13 1018 60 1879 199 2715 437 323 92 791 251
1025 349 33 14 62 25 64 26 2 0 38 -19 80 -41z"/>
</g>
</svg>
